<svg id="Layer_1" data-name="Layer 1" xmlns="http://www.w3.org/2000/svg" viewBox="0 0 308.55 32.57"><defs><style>.cls-1{fill:#e4e3e3;}.cls-2{fill:#fc6;}</style></defs><title>final</title><path class="cls-1" d="M48.87,31.36,46.29,40H31.2L27.67,52.84H15.31l6-21.48Zm2.91-10.95L49.53,28.3H19l5-7.89Z" transform="translate(-15.31 -20.26)"/><path class="cls-1" d="M77,44.85l-6.58,8H47.6l6.06-21.48H65.09L61.33,44.85ZM68.19,20.41l-2.35,7.84H54.46l2.17-7.75Z" transform="translate(-15.31 -20.26)"/><path class="cls-1" d="M113.82,52.84H102L98.83,40H92.16L82.71,52.84H68.94L85.77,31.31h23.45ZM108.56,28.3H88.26L95,20.41h11.85Z" transform="translate(-15.31 -20.26)"/><path class="cls-1" d="M143.43,49.83a12.71,12.71,0,0,1-5.82,3l-25.67-.05,2.5-8.84H132.2c1.54-.19,2.3-.94,2.3-2.25a3,3,0,0,0-.3-1.6,3,3,0,0,0-1.43-.8h-9.08a5.61,5.61,0,0,1-4.32-1.48c-.91-1-1.36-2.59-1.36-4.82V31.36h20.77q3.81.47,5.12,1.5c.13.1,1,1,2.54,2.77a13.8,13.8,0,0,1,.89,5.13A12.35,12.35,0,0,1,143.43,49.83Zm7.95-29.42-2.12,7.8H118.81a11.81,11.81,0,0,1,3.62-5.31,8.87,8.87,0,0,1,5.82-2.49Z" transform="translate(-15.31 -20.26)"/><path class="cls-1" d="M183.71,31.36l-5.83,21.48H166.51l3.38-13h-8.22l-3.62,13H146.54l5.92-21.48ZM166.93,20.41l-2.11,7.89H153.54l2.07-7.89Zm19.79,0-2.07,7.89H173.18l2.21-7.89Z" transform="translate(-15.31 -20.26)"/><path class="cls-2" d="M221.83,20.41l-2.16,7.8h-31.3l5-7.8Zm-12.17,11L204,52.84H193.21L199,31.36Z" transform="translate(-15.31 -20.26)"/><path class="cls-2" d="M244.25,31.36l-5.74,6.17-4.18,15.31H222l4.37-15.41-1.37-6Zm10.06-11-7.1,7.94h-23l-1.7-7.84h11.8l.89,3.66,3.48-3.81Z" transform="translate(-15.31 -20.26)"/><path class="cls-2" d="M289.46,31.36a10.67,10.67,0,0,1-.89,2.72q-2.77,5.79-13.26,5.78H264.5l-3.61,13H250.12L256,31.36Zm.85-3.11H254.17L259,20.41h26.55a4,4,0,0,1,2.21.75,4.72,4.72,0,0,1,1.65,1.78A11.84,11.84,0,0,1,290.31,28.25Z" transform="translate(-15.31 -20.26)"/><path class="cls-2" d="M320.81,31.36l-2.26,8.55H303.28l-1.22,4.47h15.13l-2.25,8.46H287.35l5.73-21.48Zm3.06-10.95L321.8,28.3H291.15l5.08-7.89Z" transform="translate(-15.31 -20.26)"/></svg>